
                  <svg xmlns="http://www.w3.org/2000/svg" xmlns:xlink="http://www.w3.org/1999/xlink"
                    xmlns:sketch="http://www.bohemiancoding.com/sketch/ns" viewBox="0 0 30 30" version="1.1" x="0px"
                    y="0px" preserveAspectRatio="none" width="100%" height="100%" class="" fill="#44adf2">
                    <title>
                      health_002-medical-cross-hospital-first-aid-doctor
                    </title>
                    <desc>Created with Sketch.</desc>
                    <g stroke="none" stroke-width="1" fill-rule="evenodd" sketch:type="MSPage">
                      <g sketch:type="MSArtboardGroup" transform="translate(-90.000000, -45.000000)">
                        <path
                          d="M105,71 C111.075132,71 116,66.0751322 116,60 C116,53.9248678 111.075132,49 105,49 C98.9248678,49 94,53.9248678 94,60 C94,66.0751322 98.9248678,71 105,71 Z M106.509521,55 L103.490479,55 C103.219595,55 103,55.2157526 103,55.495389 L103,58 L100.495389,58 C100.221793,58 100,58.2150574 100,58.4904785 L100,61.5095215 C100,61.7804053 100.215753,62 100.495389,62 L103,62 L103,64.504611 C103,64.7782068 103.215057,65 103.490479,65 L106.509521,65 C106.780405,65 107,64.7842474 107,64.504611 L107,62 L109.504611,62 C109.778207,62 110,61.7849426 110,61.5095215 L110,58.4904785 C110,58.2195947 109.784247,58 109.504611,58 L107,58 L107,55.495389 C107,55.2217932 106.784943,55 106.509521,55 Z"
                          sketch:type="MSShapeGroup"></path>
                      </g>
                    </g>
                  </svg>